Coordinates
version=1
nRows=10
nColumns=22
inDegrees=yes

Units are S.I. units (second, meters, Newtons, ...)
If the header above contains a line with 'inDegrees', this indicates whether rotational values are in degrees (yes) or radians (no).

endheader
time	pelvis_tilt	pelvis_list	pelvis_rotation	pelvis_tx	pelvis_ty	pelvis_tz	hip_flexion_r	hip_adduction_r	hip_rotation_r	knee_angle_r	ankle_angle_r	subtalar_angle_r	hip_flexion_l	hip_adduction_l	hip_rotation_l	knee_angle_l	ankle_angle_l	subtalar_angle_l	lumbar_extension	lumbar_bending	lumbar_rotation
      1.67000000	     11.16464556	     -0.45955982	     53.54278700	      1.07693629	      0.91824596	      0.78602162	     13.17728651	      6.04452063	     -5.17790530	    -25.07429261	      5.61659288	      6.02380443	     -0.56838179	     -5.05159431	      7.17126346	    -61.24028580	     -1.64384178	     -8.03716290	    -13.50665092	      9.72889311	    -13.33583889
      1.68000000	     11.30057387	     -0.48937302	     54.32880941	      1.08341680	      0.91915011	      0.77960975	     12.37883024	      6.20678719	     -5.95170409	    -24.88151591	      6.25762953	      5.84983575	      1.28413218	     -5.40892804	      7.23065307	    -63.39481899	     -1.28733803	     -8.24176644	    -13.60918554	      9.86834942	    -12.82801980
      1.69000000	     11.38978432	     -0.49239564	     55.07689572	      1.08973732	      0.92009458	      0.77323685	     11.58730259	      6.34999286	     -6.60724588	    -24.66111549	      6.83979731	      5.64932116	      3.14854974	     -5.67020977	      7.24608317	    -65.30164936	     -0.40571919	     -8.97339423	    -13.71394922	      9.93906515	    -12.30822536
      1.70000000	     11.44349467	     -0.42467306	     55.75681362	      1.09597037	      0.92119269	      0.76685741	     10.73805085	      6.46507388	     -7.09194192	    -24.39643310	      7.40801915	      5.45751753	      4.92883844	     -5.81292007	      7.19774898	    -66.90175401	      0.87390309	    -10.24404463	    -13.86474215	      9.91332794	    -11.75670494
      1.71000000	     11.46408496	     -0.30563206	     56.39466302	      1.10204719	      0.92242359	      0.76042159	      9.85258405	      6.54343303	     -7.48773966	    -24.09873766	      7.85829551	      5.30330148	      6.63691315	     -5.85178912	      7.11008440	    -68.19413185	      2.35577036	    -11.76484603	    -14.04084023	      9.82909295	    -11.20561507
      1.72000000	     11.44359165	     -0.13679359	     56.97785583	      1.10799466	      0.92377691	      0.75391879	      8.93065405	      6.57729916	     -7.78508735	    -23.76619089	      8.24795940	      5.16613851	      8.25781647	     -5.78006043	      6.97629607	    -69.16761299	      3.92573986	    -13.49067140	    -14.23223474	      9.67810309	    -10.64900108
      1.73000000	     11.38870580	      0.08468825	     57.51157584	      1.11379597	      0.92525156	      0.74732092	      7.95053662	      6.56189311	     -8.01272504	    -23.37692693	      8.58237216	      5.05046232	      9.76998761	     -5.60316460	      6.80494682	    -69.81482452	      5.49722961	    -15.24910256	    -14.44441504	      9.47421160	    -10.09249702
      1.74000000	     11.31008035	      0.35942114	     58.00152850	      1.11944857	      0.92682912	      0.74063480	      6.90872966	      6.49818166	     -8.21155169	    -22.94089217	      8.88559739	      4.96120268	     11.15901382	     -5.34162798	      6.59093361	    -70.13563344	      7.01744465	    -16.89985457	    -14.68693669	      9.22670003	     -9.53169472
      1.75000000	     11.22278458	      0.67605422	     58.46212621	      1.12493520	      0.92846017	      0.73386537	      5.80561165	      6.39762634	     -8.43164544	    -22.45651507	      9.17437933	      4.90614302	     12.42913982	     -5.02233440	      6.34860662	    -70.14458636	      8.45353421	    -18.29680602	    -14.95935271	      8.96071682	     -8.96090765
      1.76000000	     11.09370283	      1.00642701	     58.89115417	      1.13029674	      0.93007011	      0.72702857	      4.67582447	      6.25062366	     -8.65503003	    -21.90298246	      9.41846596	      4.88737751	     13.61636528	     -4.64657029	      6.05459694	    -69.83505092	      9.79442525	    -19.37382776	    -15.21193078	      8.65824066	     -8.42264026
